# MagicaVoxel @ Ephtracy

# group
o 

# material
mtllib example.mtl
usemtl palette

# normals
vn -1 0 0
vn 1 0 0
vn 0 0 1
vn 0 0 -1
vn 0 -1 0
vn 0 1 0

# texcoords
vt 0.306641 0.5
vt 0.994141 0.5

# verts
v -0.5 0 0.5
v -0.5 0 -0.5
v -0.5 0.6 0.5
v -0.5 0.6 0.3
v -0.5 0.6 0.2
v -0.5 0.7 0.5
v -0.5 0.7 0.3
v -0.5 0.7 0.2
v -0.5 1 0.5
v -0.5 1 -0.5
v -0.3 0.6 0.5
v -0.3 0.6 0.3
v -0.3 0.7 0.5
v -0.3 0.7 0.3
v -0.1 0.4 0.5
v -0.1 0.4 0.4
v -0.1 0.6 0.5
v -0.1 0.6 0.4
v 0.3 0.4 0.5
v 0.3 0.4 0.4
v 0.3 0.6 0.5
v 0.3 0.6 0.4
v -0.2 0.4 0.5
v -0.2 0.4 0.4
v -0.2 0.6 0.5
v -0.2 0.6 0.4
v 0.1 0.4 0.5
v 0.1 0.4 0.4
v 0.1 0.6 0.5
v 0.1 0.6 0.4
v 0.5 0 0.5
v 0.5 0 -0.5
v 0.5 1 0.5
v 0.5 1 -0.5
v -0.5 0 0.5
v -0.5 0.6 0.5
v -0.5 0.7 0.5
v -0.5 1 0.5
v -0.3 0.6 0.5
v -0.3 0.7 0.5
v -0.2 0.4 0.5
v -0.2 0.6 0.5
v -0.1 0.1 0.5
v -0.1 0.4 0.5
v -0.1 0.6 0.5
v 0.1 0.1 0.5
v 0.1 0.4 0.5
v 0.1 0.6 0.5
v 0.3 0.4 0.5
v 0.3 0.6 0.5
v 0.4 0.6 0.5
v 0.4 0.7 0.5
v 0.5 0 0.5
v 0.5 1 0.5
v -0.2 0.4 0.4
v -0.2 0.6 0.4
v -0.1 0.4 0.4
v -0.1 0.6 0.4
v 0.1 0.4 0.4
v 0.1 0.6 0.4
v 0.3 0.4 0.4
v 0.3 0.6 0.4
v -0.5 0.6 0.3
v -0.5 0.7 0.3
v -0.3 0.6 0.3
v -0.3 0.7 0.3
v -0.5 0 -0.5
v -0.5 1 -0.5
v 0.5 0 -0.5
v 0.5 1 -0.5
v -0.5 0 0.5
v 0.5 0 0.5
v -0.5 0 -0.5
v 0.5 0 -0.5
v -0.2 0.6 0.5
v -0.1 0.6 0.5
v 0.1 0.6 0.5
v 0.3 0.6 0.5
v -0.2 0.6 0.4
v -0.1 0.6 0.4
v 0.1 0.6 0.4
v 0.3 0.6 0.4
v -0.5 0.7 0.5
v -0.3 0.7 0.5
v -0.5 0.7 0.3
v -0.3 0.7 0.3
v -0.2 0.4 0.5
v -0.1 0.4 0.5
v 0.1 0.4 0.5
v 0.3 0.4 0.5
v -0.2 0.4 0.4
v -0.1 0.4 0.4
v 0.1 0.4 0.4
v 0.3 0.4 0.4
v -0.5 0.6 0.5
v -0.3 0.6 0.5
v -0.5 0.6 0.3
v -0.3 0.6 0.3
v -0.5 1 0.5
v 0.5 1 0.5
v -0.5 1 -0.5
v 0.5 1 -0.5

# faces
f 3/1/1 2/1/1 1/1/1
f 4/1/1 2/1/1 3/1/1
f 5/1/1 2/1/1 4/1/1
f 7/2/1 5/2/1 4/2/1
f 8/1/1 2/1/1 5/1/1
f 8/2/1 5/2/1 7/2/1
f 9/1/1 7/1/1 6/1/1
f 9/1/1 8/1/1 7/1/1
f 10/1/1 2/1/1 8/1/1
f 10/1/1 8/1/1 9/1/1
f 13/2/1 12/2/1 11/2/1
f 14/2/1 12/2/1 13/2/1
f 17/2/1 16/2/1 15/2/1
f 18/2/1 16/2/1 17/2/1
f 21/1/1 20/1/1 19/1/1
f 22/1/1 20/1/1 21/1/1
f 23/1/2 24/1/2 25/1/2
f 25/1/2 24/1/2 26/1/2
f 27/2/2 28/2/2 29/2/2
f 29/2/2 28/2/2 30/2/2
f 31/1/2 32/1/2 33/1/2
f 33/1/2 32/1/2 34/1/2
f 39/1/3 36/1/3 35/1/3
f 40/1/3 38/1/3 37/1/3
f 41/1/3 39/1/3 35/1/3
f 42/2/3 40/2/3 39/2/3
f 42/1/3 39/1/3 41/1/3
f 43/1/3 41/1/3 35/1/3
f 44/1/3 41/1/3 43/1/3
f 45/2/3 40/2/3 42/2/3
f 46/2/3 44/2/3 43/2/3
f 46/2/3 45/2/3 44/2/3
f 46/1/3 43/1/3 35/1/3
f 47/2/3 45/2/3 46/2/3
f 48/2/3 40/2/3 45/2/3
f 48/2/3 45/2/3 47/2/3
f 49/1/3 47/1/3 46/1/3
f 50/2/3 40/2/3 48/2/3
f 51/2/3 40/2/3 50/2/3
f 51/1/3 50/1/3 49/1/3
f 52/1/3 38/1/3 40/1/3
f 52/2/3 40/2/3 51/2/3
f 53/1/3 49/1/3 46/1/3
f 53/1/3 51/1/3 49/1/3
f 53/1/3 52/1/3 51/1/3
f 53/1/3 46/1/3 35/1/3
f 54/1/3 38/1/3 52/1/3
f 54/1/3 52/1/3 53/1/3
f 57/1/3 56/1/3 55/1/3
f 58/1/3 56/1/3 57/1/3
f 61/1/3 60/1/3 59/1/3
f 62/1/3 60/1/3 61/1/3
f 65/2/3 64/2/3 63/2/3
f 66/2/3 64/2/3 65/2/3
f 67/1/4 68/1/4 69/1/4
f 69/1/4 68/1/4 70/1/4
f 73/1/5 72/1/5 71/1/5
f 74/1/5 72/1/5 73/1/5
f 79/2/5 76/2/5 75/2/5
f 80/2/5 76/2/5 79/2/5
f 81/2/5 78/2/5 77/2/5
f 82/2/5 78/2/5 81/2/5
f 85/1/5 84/1/5 83/1/5
f 86/1/5 84/1/5 85/1/5
f 87/1/6 88/1/6 91/1/6
f 91/1/6 88/1/6 92/1/6
f 89/1/6 90/1/6 93/1/6
f 93/1/6 90/1/6 94/1/6
f 95/1/6 96/1/6 97/1/6
f 97/1/6 96/1/6 98/1/6
f 99/1/6 100/1/6 101/1/6
f 101/1/6 100/1/6 102/1/6
